<?xml version="1.0" encoding="utf-8"?>
<svg version="1.1" xmlns="http://www.w3.org/2000/svg" viewBox="-85 0 500 500" >
<g>
	<path d="M299.81,234.91c-1.58,0-3.16-0.62-4.34-1.86l-0.01-0.01c-2.29-2.4-2.19-6.2,0.21-8.48
		c2.4-2.29,6.2-2.19,8.48,0.21c2.29,2.4,2.2,6.2-0.2,8.49C302.79,234.36,301.3,234.91,299.81,234.91z" fill='#fff'/>
	<path d="M347.1,421.01c-0.52,0-1.04-0.07-1.55-0.2l-119.41-31.99c-1.54-0.41-2.85-1.42-3.64-2.8
		c-0.8-1.38-1.01-3.02-0.6-4.55l10.2-38.06c-16.93-20.06-26.27-45.41-26.37-71.73l-0.22-54.07c0-9.81,7.62-17.87,17.35-18.42
		c10.11-0.55,19.77,2.91,27.21,9.76c4.09,3.76,7.22,8.28,9.26,13.26l1.04-3.87c0.7-2.62,3.08-4.45,5.8-4.45c3.31,0,6,2.69,6,6
		c0,0.64-0.1,1.25-0.28,1.83l-9.45,35.27c-0.77,2.88-3.53,4.76-6.49,4.41c-2.96-0.35-5.21-2.81-5.3-5.79l-0.57-20.02
		c-0.2-6.84-3.08-13.17-8.13-17.8c-5.04-4.64-11.59-6.99-18.43-6.61c-3.37,0.19-6.02,2.99-6.02,6.37l0.22,54.09
		c0.09,24.48,9.14,48.01,25.46,66.25c1.35,1.51,1.85,3.6,1.32,5.55l-9.48,35.34l107.82,28.88l9.47-35.34
		c0.22-0.83,0.62-1.6,1.16-2.26c0.15-0.18,15.71-19.48,24.35-51.74l12.82-47.88c0.05-0.18,0.11-0.4,0.17-0.62l0.39-1.43
		c0.24-0.93,0.5-1.87,0.74-2.78l1.03-3.82c0.07-0.29,0.17-0.65,0.27-1l0.6-2.26c0.07-0.25,0.13-0.49,0.19-0.71l0.35-1.33
		c0.06-0.24,0.13-0.5,0.2-0.73l0.07-0.28c0.05-0.21,0.11-0.43,0.17-0.62l0.09-0.35c0.05-0.2,0.11-0.4,0.17-0.57
		c1.11-3.12,4.54-4.76,7.66-3.65c2.97,1.05,4.59,4.21,3.79,7.2c-0.01,0.03-0.01,0.05-0.02,0.08l-0.12,0.45
		c-0.01,0.04-0.02,0.07-0.03,0.11l-0.18,0.67c-0.01,0.03-0.03,0.12-0.04,0.15l-0.54,2.02c-0.01,0.05-0.03,0.1-0.04,0.14
		c-0.04,0.15-0.08,0.3-0.12,0.46l-0.64,2.39c-0.08,0.27-0.15,0.56-0.23,0.85l-1.05,3.92c-0.24,0.88-0.48,1.77-0.72,2.71l-5.54,20.66
		l-7.85,29.31c-8.28,30.9-22.23,50.49-25.83,55.19l-10.7,39.95c-0.41,1.54-1.42,2.85-2.8,3.64
		C349.18,420.74,348.14,421.01,347.1,421.01z" fill='#fff'/>
	<path d="M333.47,243.92L333.47,243.92c-3.32,0-6.01-2.69-6.01-6s2.69-6,6-6s6,2.69,6,6S336.78,243.92,333.47,243.92z"
		fill='#fff'/>
	<path d="M295.52,250.94c-0.51,0-1.04-0.07-1.56-0.21c-3.2-0.86-5.1-4.15-4.24-7.35l30.68-114.51
		c1.86-6.95-1.42-13.23-7.81-14.95c-5.77-1.54-12.31,1.84-13.73,7.11l-31.2,116.44c-0.86,3.2-4.15,5.1-7.35,4.24
		c-3.2-0.86-5.1-4.15-4.24-7.35l31.2-116.44c3.15-11.74,16.16-18.88,28.42-15.59c12.68,3.4,19.84,16.42,16.3,29.64L301.31,246.5
		C300.59,249.18,298.17,250.94,295.52,250.94z" fill='#fff'/>
	<path d="M362.81,268.97c-0.51,0-1.04-0.07-1.56-0.21c-3.2-0.86-5.1-4.15-4.24-7.35l13.63-50.86
		c0.86-3.2,0.42-6.55-1.24-9.42s-4.33-4.93-7.54-5.78c-5.55-1.49-11.27,1.82-12.76,7.37l-14.15,52.79c-0.86,3.2-4.15,5.09-7.35,4.24
		c-3.2-0.86-5.1-4.15-4.24-7.35l14.15-52.79c3.2-11.94,15.52-19.05,27.46-15.85c6.3,1.69,11.56,5.73,14.82,11.38
		s4.13,12.23,2.44,18.53l-13.63,50.86C367.88,267.21,365.46,268.97,362.81,268.97z" fill='#fff'/>
	<path d="M396.46,277.99c-0.51,0-1.04-0.07-1.56-0.21c-3.2-0.86-5.1-4.15-4.24-7.35l6.26-23.35
		c1.63-6.08-1.99-12.35-8.07-13.98c-3.46-0.93-6.65-0.9-8.99,0.06c-2.15,0.89-3.54,2.58-4.23,5.16l-7.02,26.2
		c-0.86,3.2-4.16,5.1-7.35,4.24c-3.2-0.86-5.1-4.15-4.24-7.35l7.02-26.2c1.65-6.16,5.64-10.83,11.24-13.14
		c4.84-2,10.6-2.19,16.68-0.56c12.47,3.34,19.9,16.21,16.56,28.68l-6.26,23.35C401.53,276.22,399.1,277.99,396.46,277.99z" fill='#fff'/>
	<path d="M329.17,259.96c-0.51,0-1.04-0.07-1.56-0.21c-3.2-0.86-5.1-4.15-4.24-7.35l36.82-137.51
		c1.63-6.08-1.99-12.35-8.07-13.98c-2.95-0.79-6.02-0.38-8.66,1.14c-2.64,1.52-4.53,3.99-5.32,6.93l-36.82,137.5
		c-0.86,3.2-4.15,5.1-7.35,4.24c-3.2-0.86-5.1-4.15-4.24-7.35l36.82-137.51c1.62-6.04,5.49-11.09,10.91-14.22
		c5.42-3.13,11.73-3.96,17.77-2.34c12.47,3.34,19.9,16.21,16.56,28.68l-36.82,137.5C334.24,258.19,331.82,259.96,329.17,259.96z" fill='#fff'/>
	<path d="M250.8,267.69" fill='#fff'/>
</g>
<g>
	<path d="M247.29,110.92c-0.48,0-0.97-0.06-1.46-0.18c-0.65-0.16-66.42-16.11-147.3,0.06
		c-3.25,0.65-6.41-1.46-7.06-4.71c-0.65-3.25,1.46-6.41,4.71-7.06c83.66-16.73,149.79-0.63,152.56,0.06
		c3.21,0.8,5.17,4.06,4.37,7.28C252.42,109.1,249.98,110.92,247.29,110.92z" fill='#fff'/>
	<path d="M227.6,123.85c-1.95,0-3.87-0.95-5.02-2.71c-1.82-2.77-1.05-6.49,1.72-8.31l14.68-9.64l-9.64-14.68
		c-1.82-2.77-1.05-6.49,1.72-8.31c2.77-1.82,6.49-1.05,8.31,1.72l12.93,19.69c1.82,2.77,1.05,6.49-1.72,8.31l-19.69,12.93
		C229.87,123.53,228.73,123.85,227.6,123.85z" fill='#fff'/>
</g>
<g>
	<path d="M246.03,167.31c-0.39,0-0.79-0.04-1.18-0.12c-80.88-16.17-146.65-0.22-147.3-0.06
		c-3.21,0.8-6.47-1.16-7.27-4.37c-0.8-3.21,1.15-6.47,4.37-7.27c2.77-0.69,68.91-16.79,152.56-0.06c3.25,0.65,5.36,3.81,4.71,7.06
		C251.33,165.34,248.83,167.31,246.03,167.31z" fill='#fff'/>
	<path d="M115.77,180.24c-1.13,0-2.27-0.32-3.29-0.99l-19.69-12.93c-1.33-0.87-2.26-2.24-2.58-3.8s-0.01-3.18,0.86-4.51
		l12.93-19.69c1.82-2.77,5.54-3.54,8.31-1.72c2.77,1.82,3.54,5.54,1.72,8.31l-9.64,14.68l14.68,9.64c2.77,1.82,3.54,5.54,1.72,8.31
		C119.64,179.29,117.73,180.24,115.77,180.24z" fill='#fff'/>
</g>
</svg>
